<svg width="20" height="23" viewBox="0 0 20 23" fill="none" xmlns="http://www.w3.org/2000/svg">
    <path d="M9.57344 12.1016C8.92657 9.86563 8.875 9.33125 8.875 9.22344C8.87511 9.16706 8.87824 9.11073 8.88438 9.05469C8.92753 8.78925 9.06321 8.54764 9.26739 8.37263C9.47157 8.19761 9.73109 8.10049 10 8.09844C10.2714 8.10039 10.5331 8.19999 10.7371 8.37903C10.9411 8.55807 11.0738 8.80457 11.1109 9.07344C11.1205 9.12286 11.1252 9.1731 11.125 9.22344C11.125 9.34531 11.0688 9.8375 10.5391 11.7313L10.5016 11.8484C10.3328 12.4484 10.15 13.0531 10 13.5453C9.87813 13.1375 9.7375 12.6594 9.59688 12.1672L9.57344 12.1016Z" fill="#198248" />
    <path d="M7.37969 6.125C7.34754 6.15254 7.32327 6.18813 7.30938 6.22812C7.28781 6.27519 7.27662 6.32635 7.27657 6.37812C7.27622 6.42844 7.28745 6.47816 7.30938 6.52344C7.32652 6.56814 7.35379 6.60825 7.38907 6.64062C7.42496 6.67504 7.4661 6.70352 7.51094 6.725C7.60261 6.76226 7.70521 6.76226 7.79688 6.725C7.84032 6.70351 7.87991 6.675 7.91407 6.64062C7.93377 6.62197 7.94968 6.59969 7.96094 6.575C8.13967 6.78003 8.28662 7.01073 8.39688 7.25937C8.07813 7.25 7.53438 7.20781 7.11719 6.93594C6.7 6.66406 6.4375 6.22813 6.2875 5.90469H6.30625C6.67566 5.90094 7.04162 5.97605 7.37969 6.125Z" fill="#FF0000" />
    <path fill-rule="evenodd" clip-rule="evenodd" d="M19.0656 20.3234L19.7313 20.3656L19.4266 19.775C19.4078 19.7422 17.7109 16.4094 17.2094 13.8922C17.635 14.061 18.0875 14.1515 18.5453 14.1594L19.1969 14.1781L18.8875 13.6063C18.8688 13.5641 16.6609 9.44844 16.4734 6.5C16.1828 2.96094 13.2766 0.078125 10 0.078125C6.72344 0.078125 3.81719 2.96094 3.51719 6.55625C3.33907 9.44844 1.13125 13.5641 1.1125 13.6063L0.803128 14.1781L1.45469 14.1594C1.91246 14.1515 2.36504 14.061 2.79063 13.8922C2.28907 16.4094 0.592191 19.7422 0.573441 19.775L0.268753 20.3703L0.934378 20.3234C2.63594 20.2016 4.10313 19.1375 4.83907 18.5C5.07813 19.8969 4.88125 21.3875 4.88125 21.4062L4.80157 22.0109L5.37813 21.8094C6.69063 21.35 7.54844 19.6016 8.00313 18.3594C8.06464 18.6532 8.10692 18.9507 8.12969 19.25C8.19532 20.3281 9.59219 21.5938 9.75157 21.7344L10 21.9547L10.2484 21.7344C10.4078 21.5938 11.8047 20.3281 11.8703 19.25C11.8931 18.9507 11.9354 18.6532 11.9969 18.3594C12.4516 19.6016 13.3094 21.35 14.6219 21.8094L15.1984 22.0109L15.1188 21.4062C15.1188 21.3875 14.9219 19.8969 15.1609 18.5C15.8969 19.1375 17.3641 20.2016 19.0656 20.3234ZM11.7813 9.87031C11.9861 9.656 12.202 9.45259 12.4281 9.26094L11.8703 9.32656C11.8537 9.50971 11.8239 9.69143 11.7813 9.87031ZM8.875 9.22344C8.875 9.33125 8.92657 9.86563 9.57344 12.1016L9.59688 12.1672C9.7375 12.6594 9.87813 13.1375 10 13.5453C10.15 13.0531 10.3328 12.4484 10.5016 11.8484L10.5391 11.7313C11.0688 9.8375 11.125 9.34531 11.125 9.22344C11.1252 9.1731 11.1205 9.12286 11.1109 9.07344C11.0738 8.80457 10.9411 8.55807 10.7371 8.37903C10.5331 8.19999 10.2714 8.10039 10 8.09844C9.73109 8.10049 9.47157 8.19761 9.26739 8.37263C9.06321 8.54764 8.92753 8.78925 8.88438 9.05469C8.87824 9.11073 8.87511 9.16706 8.875 9.22344ZM7.30938 6.22812C7.32327 6.18813 7.34754 6.15254 7.37969 6.125C7.04162 5.97605 6.67566 5.90094 6.30625 5.90469H6.2875C6.4375 6.22813 6.7 6.66406 7.11719 6.93594C7.53438 7.20781 8.07813 7.25 8.39688 7.25937C8.28662 7.01073 8.13967 6.78003 7.96094 6.575C7.94968 6.59969 7.93377 6.62197 7.91407 6.64062C7.87991 6.675 7.84032 6.70351 7.79688 6.725C7.70521 6.76226 7.60261 6.76226 7.51094 6.725C7.4661 6.70352 7.42496 6.67504 7.38907 6.64062C7.35379 6.60825 7.32652 6.56814 7.30938 6.52344C7.28745 6.47816 7.27622 6.42844 7.27657 6.37812C7.27662 6.32635 7.28781 6.27519 7.30938 6.22812ZM11.7016 7.25937C12.0719 7.25937 12.5688 7.20313 12.9859 6.93594C13.4031 6.66875 13.6656 6.22812 13.8109 5.9H13.7969C13.4286 5.89693 13.0639 5.97369 12.7281 6.125C12.7542 6.15748 12.7777 6.19196 12.7984 6.22812C12.8142 6.27672 12.8236 6.32713 12.8266 6.37812C12.8236 6.42758 12.8141 6.47644 12.7984 6.52344C12.7746 6.5654 12.7463 6.60469 12.7141 6.64062C12.6431 6.71156 12.5472 6.75194 12.4469 6.75312C12.3978 6.75294 12.3493 6.74289 12.3042 6.72356C12.2591 6.70424 12.2183 6.67603 12.1844 6.64062C12.1662 6.62073 12.1504 6.59869 12.1375 6.575C11.9603 6.7812 11.8135 7.01166 11.7016 7.25937ZM7.54375 9.25625C7.76407 9.44375 7.99375 9.65938 8.22344 9.89844C8.18119 9.71156 8.15143 9.52208 8.13438 9.33125L7.54375 9.25625Z" fill="white" />
    <path d="M12.9859 6.93594C12.5688 7.20313 12.0719 7.25937 11.7016 7.25937C11.8135 7.01166 11.9603 6.7812 12.1375 6.575C12.1504 6.59869 12.1662 6.62073 12.1844 6.64062C12.2183 6.67603 12.2591 6.70424 12.3042 6.72356C12.3493 6.74289 12.3978 6.75294 12.4469 6.75312C12.5472 6.75194 12.6431 6.71156 12.7141 6.64062C12.7463 6.60469 12.7746 6.5654 12.7984 6.52344C12.8141 6.47644 12.8236 6.42758 12.8266 6.37812C12.8236 6.32713 12.8142 6.27672 12.7984 6.22812C12.7777 6.19196 12.7542 6.15748 12.7281 6.125C13.0639 5.97369 13.4286 5.89693 13.7969 5.9H13.8109C13.6656 6.22812 13.4031 6.66875 12.9859 6.93594Z" fill="#FF0000" />
</svg>
