<svg width="16" height="14" viewBox="0 0 16 14" fill="none" xmlns="http://www.w3.org/2000/svg">
<path d="M11.3334 6.20297C11.3334 5.97256 11.3334 5.85735 11.3681 5.75465C11.4689 5.45629 11.7346 5.34051 12.0008 5.21926C12.3 5.08295 12.4497 5.01479 12.5979 5.0028C12.7662 4.98919 12.9349 5.02545 13.0787 5.10619C13.2694 5.21323 13.4025 5.41662 13.5386 5.58201C14.1675 6.3459 14.482 6.72784 14.5971 7.14904C14.6899 7.48894 14.6899 7.84439 14.5971 8.1843C14.4292 8.79862 13.899 9.31357 13.5066 9.79026C13.3058 10.0341 13.2054 10.156 13.0787 10.2271C12.9349 10.3079 12.7662 10.3441 12.5979 10.3305C12.4497 10.3185 12.3 10.2504 12.0008 10.1141C11.7346 9.99283 11.4689 9.87704 11.3681 9.57869C11.3334 9.47598 11.3334 9.36078 11.3334 9.13037V6.20297Z" stroke="#64748B"/>
<path d="M4.66663 6.20292C4.66663 5.91275 4.65848 5.65198 4.4239 5.44797C4.33858 5.37377 4.22546 5.32225 3.99923 5.2192C3.69996 5.0829 3.55033 5.01474 3.40207 5.00275C2.95724 4.96677 2.71791 5.27038 2.46138 5.58196C1.83246 6.34585 1.518 6.72779 1.40294 7.14899C1.31008 7.48889 1.31008 7.84434 1.40294 8.18425C1.57076 8.79857 2.10097 9.31352 2.49343 9.79021C2.74082 10.0907 2.97714 10.3648 3.40207 10.3305C3.55033 10.3185 3.69996 10.2503 3.99923 10.114C4.22546 10.011 4.33858 9.95946 4.4239 9.88526C4.65848 9.68126 4.66663 9.42048 4.66663 9.13032V6.20292Z" stroke="#64748B"/>
<path d="M3.33337 5C3.33337 2.79086 5.42271 1 8.00004 1C10.5774 1 12.6667 2.79086 12.6667 5" stroke="#64748B" stroke-linecap="square" stroke-linejoin="round"/>
<path d="M12.6666 10.3333V10.8667C12.6666 12.0449 11.4727 13 9.99996 13H8.66663" stroke="#64748B" stroke-linecap="round" stroke-linejoin="round"/>
</svg>
