<svg width="14" height="16" viewBox="0 0 14 16" fill="none" xmlns="http://www.w3.org/2000/svg">
    <path d="M7 14.6667C6.45455 14.6667 5.93346 14.4465 4.89129 14.0063C2.2971 12.9104 1 12.3625 1 11.4409C1 11.1828 1 6.70967 1 4.66666M7 14.6667C7.54546 14.6667 8.06654 14.4465 9.10872 14.0063C11.7029 12.9104 13 12.3625 13 11.4409V4.66666M7 14.6667L7 7.56989" stroke="#64748B" stroke-linecap="round" stroke-linejoin="round" />
    <path d="M4.55061 6.46092L2.60314 5.51857C1.53438 5.0014 1 4.74282 1 4.33334C1 3.92385 1.53438 3.66527 2.60314 3.14811L4.55061 2.20575C5.75256 1.62414 6.35353 1.33334 7 1.33334C7.64647 1.33334 8.24744 1.62414 9.44939 2.20575L11.3969 3.1481C12.4656 3.66527 13 3.92385 13 4.33334C13 4.74282 12.4656 5.0014 11.3969 5.51857L9.44939 6.46092C8.24744 7.04253 7.64647 7.33334 7 7.33334C6.35353 7.33334 5.75256 7.04253 4.55061 6.46092Z" stroke="#64748B" stroke-linecap="round" stroke-linejoin="round" />
    <path d="M3 8L4.33333 8.66667" stroke="#64748B" stroke-linecap="round" stroke-linejoin="round" />
    <path d="M10.3334 2.66666L3.66669 6" stroke="#64748B" stroke-linecap="round" stroke-linejoin="round" />
</svg>
