<svg width="20" height="22" viewBox="0 0 20 22" fill="none" xmlns="http://www.w3.org/2000/svg">
    <path d="M4.57709 14.4816C3.16232 15.324 -0.547124 17.0441 1.71217 19.1966C2.81582 20.248 4.045 21 5.59038 21H14.4086C15.954 21 17.1832 20.248 18.2868 19.1966C20.5461 17.0441 16.8367 15.324 15.4219 14.4816C12.1043 12.5061 7.8947 12.5061 4.57709 14.4816Z" stroke="white" stroke-width="1.5" stroke-linecap="round" stroke-linejoin="round" />
    <path d="M14.4998 5.5C14.4998 7.98528 12.485 10 9.99976 10C7.51447 10 5.49976 7.98528 5.49976 5.5C5.49976 3.01472 7.51447 1 9.99976 1C12.485 1 14.4998 3.01472 14.4998 5.5Z" stroke="white" stroke-width="1.5" />
</svg>
